<svg xmlns="http://www.w3.org/2000/svg" xmlns:xlink="http://www.w3.org/1999/xlink" xmlns:lucid="lucid" width="462.67" height="217.33"><g transform="translate(-719 -299)" lucid:page-tab-id="0_0"><path d="M960 306a6 6 0 0 1 6-6h208.67a6 6 0 0 1 6 6v43.33a6 6 0 0 1-6 6H966a6 6 0 0 1-6-6z" stroke="#000" stroke-width="2" fill="#fff"/><use xlink:href="#a" transform="matrix(1,0,0,1,972,312) translate(49.43315972222223 24.02777777777778)"/><path d="M720 466a6 6 0 0 1 6-6h208.67a6 6 0 0 1 6 6v43.33a6 6 0 0 1-6 6H726a6 6 0 0 1-6-6z" stroke="#000" stroke-width="2" fill="#fff"/><use xlink:href="#b" transform="matrix(1,0,0,1,732,472) translate(20.890407986111114 24.02777777777778)"/><path d="M1070.32 356.83v.37l-.06.84-.1.83-.1.83-.16.8-.2.83-.22.8-.27.83-.3.82-.34.83-.4.86-.45.86-.5.88-.57.9-.65.93-.73.97-.84 1-.93 1.06-1.1 1.1-1.24 1.17-1.44 1.25-1.7 1.34-2 1.44-2.36 1.57-2.87 1.74-3.54 1.94-4.45 2.22-5.8 2.57-7.9 3.1-11.82 4.1-23.62 7.04-60.44 17.1-11.82 4.08-7.9 3.13-5.8 2.57-4.46 2.2-3.53 1.94-2.88 1.74-2.37 1.57-2 1.45-1.68 1.33-1.45 1.25-1.25 1.17-1.08 1.1-.82.9" stroke="#3a414a" stroke-linejoin="round" fill="none"/><path d="M1070.8 356.86l-.95-.02v-.5h.96z" stroke="#3a414a" stroke-width=".05" fill="#3a414a"/><path d="M880.74 457.5l1.1-14.96 8.58 3.5z" stroke="#3a414a" fill="#3a414a"/><path d="M960 466a6 6 0 0 1 6-6h208.67a6 6 0 0 1 6 6v43.33a6 6 0 0 1-6 6H966a6 6 0 0 1-6-6z" stroke="#000" stroke-width="2" fill="#fff"/><use xlink:href="#c" transform="matrix(1,0,0,1,972,472) translate(30.552951388888886 24.02777777777778)"/><path d="M1070.35 356.83l.12 5.37.37 5.1.55 4.5.7 4.1.84 3.8 1 3.6 1.13 3.48 1.35 3.52 1.64 3.73 2.2 4.38 12.75 22.9 1.64 3.74 1.35 3.5 1.14 3.5.98 3.6.85 3.8.55 3.24" stroke="#3a414a" stroke-linejoin="round" fill="none"/><path d="M1070.82 356.84l-.95.02v-.53h.94z" stroke="#3a414a" stroke-width=".05" fill="#3a414a"/><path d="M1100.6 457.4l-5.66-13.9 9.24-.68z" stroke="#3a414a" fill="#3a414a"/><path d="M720 306a6 6 0 0 1 6-6h208.67a6 6 0 0 1 6 6v43.33a6 6 0 0 1-6 6H726a6 6 0 0 1-6-6z" stroke="#000" stroke-width="2" fill="#cfe4ff"/><use xlink:href="#d" transform="matrix(1,0,0,1,732,312) translate(16.1052517361111 24.02777777777778)"/><path d="M830.32 356.83l-.1 4.44-.32 4.38-.5 3.96-.6 3.64-.76 3.38-.88 3.2-1 3.08-1.17 3.04-1.35 3.06-1.6 3.2-2 3.53-2.8 4.47-13.2 19.4-1.98 3.54-1.6 3.2-1.34 3.06-1.16 3.03-1 3.08-.88 3.2-.77 3.4-.1.6" stroke="#3a414a" stroke-linejoin="round" fill="none"/><path d="M830.8 356.86l-.95-.02v-.5h.96z" stroke="#3a414a" stroke-width=".05" fill="#3a414a"/><path d="M793.93 457.4l-3.36-14.63 9.23.8z" stroke="#3a414a" fill="#3a414a"/><path d="M830.34 356.83v.36l.06.82.1.82.1.8.16.82.2.8.22.8.26.82.3.8.35.83.38.85.45.85.5.87.57.9.64.92.73.94.82 1 .93 1.04 1.08 1.1 1.24 1.16 1.43 1.24 1.68 1.32 1.97 1.43 2.36 1.56 2.84 1.7 3.5 1.94 4.4 2.18 5.74 2.54 7.8 3.08 11.55 4 21.97 6.56 66.1 18.5 11.56 4 7.8 3.07 5.73 2.54 4.4 2.2 3.5 1.92 2.86 1.72 2.35 1.56 1.97 1.43 1.67 1.33 1.45 1.23 1.23 1.16 1.08 1.1.68.75" stroke="#3a414a" stroke-linejoin="round" fill="none"/><path d="M830.82 356.84l-.95.02v-.53h.94z" stroke="#3a414a" stroke-width=".05" fill="#3a414a"/><path d="M1022.54 457.5l-9.74-11.4 8.57-3.55z" stroke="#3a414a" fill="#3a414a"/><defs><path d="M613 24c-304 0-509-231-509-576 0-350 205-580 509-580 216 0 392 114 453 309l-173 49c-33-115-133-197-280-197-223 0-326 196-326 419 0 220 103 415 326 415 150 0 252-85 285-206l172 49C1010-95 832 24 613 24" id="e"/><path d="M613 24c-304 0-509-231-509-576 0-350 205-580 509-580 305 0 511 230 511 580 0 345-206 576-511 576zm0-161c226 0 329-195 329-415 0-222-103-419-329-419-223 0-326 196-326 419 0 220 103 415 326 415" id="f"/><path d="M158 0v-1118h174v172h12c41-113 157-188 290-188 26 0 70 2 91 3v181c-11-2-60-10-108-10-161 0-279 109-279 260V0H158" id="g"/><path d="M628 24c-324 0-524-230-524-574 0-343 198-582 503-582 237 0 487 146 487 559v75H286c9 234 145 362 343 362 132 0 231-58 273-172l174 48C1024-91 857 24 628 24zM287-650h624c-17-190-120-322-304-322-192 0-309 151-320 322" id="h"/><path d="M798-719v166H144v-166h654" id="i"/><path d="M158 0v-1490h180v865h22l478-493h223L593-638 1096 0H865L456-523 338-412V0H158" id="j"/><path d="M598-1118v154H368v674c0 100 37 144 132 144 23 0 62-6 92-12L629-6c-37 13-88 20-134 20-193 0-307-107-307-290v-688H20v-154h168v-266h180v266h230" id="k"/><g id="a"><use transform="matrix(0.010850694444444444,0,0,0.010850694444444444,0,0)" xlink:href="#e"/><use transform="matrix(0.010850694444444444,0,0,0.010850694444444444,12.6953125,0)" xlink:href="#f"/><use transform="matrix(0.010850694444444444,0,0,0.010850694444444444,26.01996527777778,0)" xlink:href="#g"/><use transform="matrix(0.010850694444444444,0,0,0.010850694444444444,34.016927083333336,0)" xlink:href="#h"/><use transform="matrix(0.010850694444444444,0,0,0.010850694444444444,46.97265625,0)" xlink:href="#i"/><use transform="matrix(0.010850694444444444,0,0,0.010850694444444444,57.194010416666664,0)" xlink:href="#j"/><use transform="matrix(0.010850694444444444,0,0,0.010850694444444444,69.39019097222221,0)" xlink:href="#k"/><use transform="matrix(0.010850694444444444,0,0,0.010850694444444444,76.4431423611111,0)" xlink:href="#f"/><use transform="matrix(0.010850694444444444,0,0,0.010850694444444444,89.76779513888887,0)" xlink:href="#g"/></g><path d="M678-1118v154H420V0H240v-964H20v-154h220v-149c0-194 155-293 318-293 85 0 141 18 168 30l-50 154c-19-6-47-17-97-17-111 0-159 58-159 166v109h258" id="l"/><path d="M537 14c-226 0-379-139-379-422v-710h180v695c0 172 97 275 253 275 160 0 281-109 281-300v-670h181V0H879v-209C806-46 684 14 537 14" id="m"/><path d="M338-670V0H158v-1118h173l1 207c72-158 192-221 342-221 226 0 378 139 378 422V0H872v-695c0-172-96-275-252-275-161 0-282 109-282 300" id="n"/><path d="M158 0v-1118h180V0H158zm91-1301c-68 0-125-53-125-119s57-119 125-119c69 0 126 53 126 119s-57 119-126 119" id="o"/><path d="M538 24C308 24 148-78 108-271l171-41c32 123 123 178 257 178 156 0 256-77 256-169 0-77-54-128-164-154l-186-44c-203-48-300-148-300-305 0-192 176-326 414-326 230 0 351 112 402 269l-163 42c-31-80-94-158-238-158-133 0-233 69-233 162 0 83 57 129 188 160l169 40c203 48 298 149 298 302 0 196-179 339-441 339" id="p"/><g id="b"><use transform="matrix(0.010850694444444444,0,0,0.010850694444444444,0,0)" xlink:href="#e"/><use transform="matrix(0.010850694444444444,0,0,0.010850694444444444,12.6953125,0)" xlink:href="#f"/><use transform="matrix(0.010850694444444444,0,0,0.010850694444444444,26.01996527777778,0)" xlink:href="#g"/><use transform="matrix(0.010850694444444444,0,0,0.010850694444444444,34.016927083333336,0)" xlink:href="#h"/><use transform="matrix(0.010850694444444444,0,0,0.010850694444444444,46.97265625,0)" xlink:href="#i"/><use transform="matrix(0.010850694444444444,0,0,0.010850694444444444,57.194010416666664,0)" xlink:href="#l"/><use transform="matrix(0.010850694444444444,0,0,0.010850694444444444,65.41883680555556,0)" xlink:href="#m"/><use transform="matrix(0.010850694444444444,0,0,0.010850694444444444,78.55902777777777,0)" xlink:href="#n"/><use transform="matrix(0.010850694444444444,0,0,0.010850694444444444,91.68836805555556,0)" xlink:href="#e"/><use transform="matrix(0.010850694444444444,0,0,0.010850694444444444,104.38368055555556,0)" xlink:href="#k"/><use transform="matrix(0.010850694444444444,0,0,0.010850694444444444,111.65364583333331,0)" xlink:href="#o"/><use transform="matrix(0.010850694444444444,0,0,0.010850694444444444,117.03559027777776,0)" xlink:href="#f"/><use transform="matrix(0.010850694444444444,0,0,0.010850694444444444,130.36024305555554,0)" xlink:href="#n"/><use transform="matrix(0.010850694444444444,0,0,0.010850694444444444,143.48958333333331,0)" xlink:href="#p"/></g><path d="M338-1490V0H158v-1490h180" id="q"/><path d="M471 26C259 26 90-98 90-318c0-256 228-303 435-329 202-27 287-16 287-108 0-139-79-219-234-219-161 0-248 86-283 164l-173-57c86-203 278-265 451-265 150 0 419 46 419 395V0H815v-152h-12C765-73 660 26 471 26zm31-159c199 0 310-134 310-271v-155c-30 35-226 55-295 64-131 17-246 59-246 186 0 116 97 176 231 176" id="r"/><g id="c"><use transform="matrix(0.010850694444444444,0,0,0.010850694444444444,0,0)" xlink:href="#e"/><use transform="matrix(0.010850694444444444,0,0,0.010850694444444444,12.6953125,0)" xlink:href="#f"/><use transform="matrix(0.010850694444444444,0,0,0.010850694444444444,26.01996527777778,0)" xlink:href="#g"/><use transform="matrix(0.010850694444444444,0,0,0.010850694444444444,34.016927083333336,0)" xlink:href="#h"/><use transform="matrix(0.010850694444444444,0,0,0.010850694444444444,46.97265625,0)" xlink:href="#i"/><use transform="matrix(0.010850694444444444,0,0,0.010850694444444444,57.194010416666664,0)" xlink:href="#e"/><use transform="matrix(0.010850694444444444,0,0,0.010850694444444444,69.88932291666666,0)" xlink:href="#q"/><use transform="matrix(0.010850694444444444,0,0,0.010850694444444444,75.2712673611111,0)" xlink:href="#r"/><use transform="matrix(0.010850694444444444,0,0,0.010850694444444444,87.74956597222221,0)" xlink:href="#p"/><use transform="matrix(0.010850694444444444,0,0,0.010850694444444444,99.47916666666666,0)" xlink:href="#p"/><use transform="matrix(0.010850694444444444,0,0,0.010850694444444444,111.2087673611111,0)" xlink:href="#h"/><use transform="matrix(0.010850694444444444,0,0,0.010850694444444444,124.16449652777777,0)" xlink:href="#p"/></g><path d="M158 0v-1118h175l1 205c55-151 181-225 313-225 147 0 245 90 285 228 53-141 190-228 352-228 194 0 352 125 352 384V0h-181v-749c0-161-105-225-225-225-151 0-243 103-243 244V0H807v-767c0-124-93-207-219-207-131 0-250 92-250 270V0H158" id="s"/><path d="M158 418v-1536h174v179h20c37-59 106-193 324-193 279 0 474 222 474 576 0 356-194 580-473 580-213 0-288-135-325-197h-14v591H158zm492-555c209 0 317-186 317-421 0-232-105-413-317-413-206 0-314 166-314 413 0 249 111 421 314 421" id="t"/><path d="M611 442c-248 0-391-105-460-228l146-94c47 65 117 165 314 165 178 0 307-82 307-266v-224h-17C863-141 792-18 576-18c-268 0-472-195-472-546 0-346 197-568 476-568 216 0 288 133 326 193h17v-179h175V29c0 289-215 413-487 413zm-5-620c203 0 314-146 314-390 0-237-108-403-314-403-213 0-319 180-319 403 0 230 109 390 319 390" id="u"/><g id="d"><use transform="matrix(0.010850694444444444,0,0,0.010850694444444444,0,0)" xlink:href="#e"/><use transform="matrix(0.010850694444444444,0,0,0.010850694444444444,12.6953125,0)" xlink:href="#f"/><use transform="matrix(0.010850694444444444,0,0,0.010850694444444444,26.01996527777778,0)" xlink:href="#s"/><use transform="matrix(0.010850694444444444,0,0,0.010850694444444444,45.48611111111111,0)" xlink:href="#t"/><use transform="matrix(0.010850694444444444,0,0,0.010850694444444444,59.09288194444444,0)" xlink:href="#o"/><use transform="matrix(0.010850694444444444,0,0,0.010850694444444444,64.47482638888889,0)" xlink:href="#q"/><use transform="matrix(0.010850694444444444,0,0,0.010850694444444444,69.85677083333333,0)" xlink:href="#h"/><use transform="matrix(0.010850694444444444,0,0,0.010850694444444444,82.8125,0)" xlink:href="#g"/><use transform="matrix(0.010850694444444444,0,0,0.010850694444444444,90.29947916666666,0)" xlink:href="#i"/><use transform="matrix(0.010850694444444444,0,0,0.010850694444444444,100.52083333333334,0)" xlink:href="#t"/><use transform="matrix(0.010850694444444444,0,0,0.010850694444444444,114.12760416666666,0)" xlink:href="#q"/><use transform="matrix(0.010850694444444444,0,0,0.010850694444444444,119.5095486111111,0)" xlink:href="#m"/><use transform="matrix(0.010850694444444444,0,0,0.010850694444444444,132.64973958333334,0)" xlink:href="#u"/><use transform="matrix(0.010850694444444444,0,0,0.010850694444444444,146.27821180555557,0)" xlink:href="#o"/><use transform="matrix(0.010850694444444444,0,0,0.010850694444444444,151.66015625000003,0)" xlink:href="#n"/></g></defs></g></svg>